<svg xmlns="http://www.w3.org/2000/svg" viewBox="0 0 512 512">
  <rect width="512" height="512" fill="none"/>
  <g fill="none" stroke-linecap="round">
    <path d="M92 410C96 320 104 232 116 128" stroke="#7aa858" stroke-width="8"/>
    <path d="M122 410c-2-78 8-164 30-254" stroke="#5c9148" stroke-width="7"/>
    <path d="M154 410c0-106 8-198 32-278" stroke="#87b963" stroke-width="8"/>
    <path d="M188 410c-6-86 2-170 24-248" stroke="#689d4f" stroke-width="7"/>
    <path d="M222 410c-2-114 6-210 26-306" stroke="#7fb55e" stroke-width="9"/>
    <path d="M260 410c0-98 10-184 34-260" stroke="#5f9449" stroke-width="7"/>
    <path d="M296 410c-2-84 4-162 20-232" stroke="#89be68" stroke-width="8"/>
    <path d="M326 410c8-104 18-186 42-278" stroke="#6ca052" stroke-width="7"/>
    <path d="M362 410c-2-72 6-150 26-220" stroke="#82b760" stroke-width="8"/>
    <path d="M398 410c8-80 18-144 30-212" stroke="#5f9348" stroke-width="7"/>
  </g>
  <ellipse cx="256" cy="418" rx="190" ry="24" fill="#7c9b5a" opacity=".28"/>
</svg>
