<svg xmlns="http://www.w3.org/2000/svg" viewBox="0 0 512 512">
  <rect width="512" height="512" fill="none"/>
  <g fill="none" stroke="#7b4b46" stroke-width="9" stroke-linecap="round">
    <path d="M252 420V118"/>
    <path d="M198 410c16-82 18-170 6-260"/>
    <path d="M306 410c-16-92-18-180-4-266"/>
  </g>
  <g>
    <ellipse cx="226" cy="142" rx="32" ry="58" fill="#9d354c" transform="rotate(-45 226 142)"/>
    <ellipse cx="284" cy="150" rx="32" ry="58" fill="#c45159" transform="rotate(46 284 150)"/>
    <ellipse cx="218" cy="210" rx="34" ry="62" fill="#87334e" transform="rotate(-55 218 210)"/>
    <ellipse cx="292" cy="218" rx="34" ry="62" fill="#b3435a" transform="rotate(55 292 218)"/>
    <ellipse cx="206" cy="286" rx="36" ry="66" fill="#6d8f4f" transform="rotate(-60 206 286)"/>
    <ellipse cx="306" cy="290" rx="36" ry="66" fill="#a33c55" transform="rotate(60 306 290)"/>
    <ellipse cx="188" cy="360" rx="34" ry="60" fill="#7fa45b" transform="rotate(-58 188 360)"/>
    <ellipse cx="324" cy="358" rx="34" ry="60" fill="#8d334d" transform="rotate(58 324 358)"/>
  </g>
</svg>
