<svg xmlns="http://www.w3.org/2000/svg" viewBox="0 0 512 512">
  <rect width="512" height="512" fill="none"/>
  <g fill="none" stroke="#8d4350" stroke-width="8" stroke-linecap="round">
    <path d="M254 424c8-104 8-204-2-304"/>
    <path d="M204 410c16-78 18-156 6-232"/>
    <path d="M304 410c-14-82-12-160 4-234"/>
  </g>
  <g fill="none" stroke-linecap="round">
    <path d="M252 158c-42 24-74 54-98 88M252 168c44 24 80 54 108 92" stroke="#a94f5a" stroke-width="9"/>
    <path d="M238 240c-52 24-92 62-126 112M270 244c52 24 92 62 124 112" stroke="#c05b5b" stroke-width="9"/>
    <path d="M226 324c-42 22-72 50-96 86M286 326c44 20 74 48 96 84" stroke="#8fa75c" stroke-width="9"/>
    <path d="M150 246l32 10M170 224l24 22M346 262l-36 8M332 236l-26 26M118 352l40 8M142 326l30 28M392 354l-40 8M368 328l-30 28" stroke="#d07962" stroke-width="6"/>
  </g>
</svg>
