<svg xmlns="http://www.w3.org/2000/svg" viewBox="0 0 512 512">
  <rect width="512" height="512" fill="none"/>
  <g fill="none" stroke="#b14b5c" stroke-width="6" stroke-linecap="round" opacity=".85">
    <path d="M180 272c-8 42-14 82-10 124"/>
    <path d="M248 246c-10 48-18 94-14 148"/>
    <path d="M316 274c-8 42-12 80-8 120"/>
  </g>
  <g>
    <ellipse cx="170" cy="226" rx="42" ry="30" fill="#88b35b" transform="rotate(-20 170 226)"/>
    <ellipse cx="218" cy="210" rx="40" ry="28" fill="#b35a61" transform="rotate(16 218 210)"/>
    <ellipse cx="270" cy="218" rx="42" ry="30" fill="#91bd63" transform="rotate(-14 270 218)"/>
    <ellipse cx="324" cy="238" rx="40" ry="28" fill="#c76568" transform="rotate(20 324 238)"/>
    <ellipse cx="196" cy="270" rx="42" ry="30" fill="#9ec568" transform="rotate(18 196 270)"/>
    <ellipse cx="256" cy="266" rx="44" ry="30" fill="#d06f6f" transform="rotate(-18 256 266)"/>
    <ellipse cx="318" cy="286" rx="42" ry="30" fill="#8ab55e" transform="rotate(14 318 286)"/>
  </g>
  <g fill="none" stroke="#d1868a" stroke-width="4" stroke-linecap="round">
    <path d="M170 396c10-28 26-40 44-56"/>
    <path d="M236 394c16-30 34-44 56-62"/>
    <path d="M310 392c14-28 28-40 48-58"/>
  </g>
</svg>
