<svg xmlns="http://www.w3.org/2000/svg" viewBox="0 0 512 512">
  <rect width="512" height="512" fill="none"/>
  <ellipse cx="288" cy="292" rx="132" ry="84" fill="#302f27"/>
  <path d="M172 292c28-74 82-112 146-108 50 4 88 40 104 108-36 42-82 64-138 64-50 0-88-22-112-64Z" fill="#3b392e"/>
  <g fill="none" stroke="#6b6249" stroke-width="5" opacity=".8">
    <path d="M216 232c44 32 92 34 144 0"/>
    <path d="M198 292c58 18 116 18 174 0"/>
    <path d="M246 190c-10 54-10 104 0 148"/>
    <path d="M310 188c8 56 8 106 0 150"/>
  </g>
  <ellipse cx="128" cy="282" rx="48" ry="36" fill="#40392a" transform="rotate(-14 128 282)"/>
  <circle cx="106" cy="272" r="7" fill="#111"/>
  <path d="M92 298c26 8 50 8 72-2" stroke="#b09358" stroke-width="5" stroke-linecap="round"/>
  <path d="M104 256c20 8 40 8 60 0" stroke="#b09358" stroke-width="4" stroke-linecap="round"/>
  <g fill="#2b2a23">
    <ellipse cx="202" cy="374" rx="38" ry="14" transform="rotate(-22 202 374)"/>
    <ellipse cx="374" cy="354" rx="38" ry="14" transform="rotate(24 374 354)"/>
    <ellipse cx="204" cy="212" rx="34" ry="13" transform="rotate(30 204 212)"/>
    <ellipse cx="376" cy="232" rx="34" ry="13" transform="rotate(-26 376 232)"/>
  </g>
</svg>
