<svg xmlns="http://www.w3.org/2000/svg" viewBox="0 0 512 512">
  <rect width="512" height="512" fill="none"/>
  <ellipse cx="286" cy="286" rx="140" ry="90" fill="#3b3a2c"/>
  <path d="M162 288c30-78 88-120 164-116 50 2 88 42 100 114-36 46-84 70-146 70-54 0-94-22-118-68Z" fill="#474431"/>
  <g fill="none" stroke="#756f4d" stroke-width="5" opacity=".8">
    <path d="M212 224c42 36 90 40 142 0"/>
    <path d="M198 286c62 18 118 18 176 0"/>
    <path d="M238 188c-10 54-10 104 0 150"/>
    <path d="M304 184c8 60 8 112 0 160"/>
    <path d="M360 220c-14 46-16 82-8 112"/>
  </g>
  <ellipse cx="128" cy="260" rx="50" ry="38" fill="#514934" transform="rotate(-16 128 260)"/>
  <circle cx="104" cy="250" r="7" fill="#171611"/>
  <path d="M90 272c28 10 54 10 78 0" stroke="#b6a463" stroke-width="5" stroke-linecap="round"/>
  <path d="M112 226c18 8 34 10 50 8" stroke="#c9b86f" stroke-width="4" stroke-linecap="round"/>
  <g fill="#343126">
    <ellipse cx="200" cy="374" rx="40" ry="16" transform="rotate(-24 200 374)"/>
    <ellipse cx="380" cy="350" rx="40" ry="16" transform="rotate(24 380 350)"/>
    <ellipse cx="202" cy="200" rx="36" ry="14" transform="rotate(32 202 200)"/>
    <ellipse cx="382" cy="224" rx="36" ry="14" transform="rotate(-28 382 224)"/>
  </g>
</svg>
